<svg xmlns="http://www.w3.org/2000/svg" version="1.1" xmlns:xlink="http://www.w3.org/1999/xlink" xmlns:svgjs="http://svgjs.dev/svgjs" width="1440" height="540" preserveAspectRatio="none" viewBox="0 0 1440 540">
    <g mask="url(&quot;#SvgjsMask1024&quot;)" fill="none">
        <rect width="1440" height="540" x="0" y="0" fill="rgba(14, 42, 71, 0.06)"></rect>
        <path d="M223.2 383.09 a0.8 0.8 0 1 0 1.6 0 a0.8 0.8 0 1 0 -1.6 0z" fill="#d3b714"></path>
        <path d="M1385.54 529.84a9.69 9.69 0 1 0-10.61 16.21z" fill="rgba(9, 249, 116, 1)"></path>
        <path d="M956.67 342.58L999.39 342.58L999.39 380.64L956.67 380.64z" fill="rgba(9, 29, 249, 1)"></path>
        <path d="M1413.95 484.78L1415.94 484.78L1415.94 531.94L1413.95 531.94z" fill="#d3b714"></path>
        <path d="M631.92 69.81L670.47 69.81L670.47 108.36L631.92 108.36z" stroke="rgba(9, 249, 116, 1)"></path>
        <path d="M151.52 334.41L196.34 334.41L196.34 353.53L151.52 353.53z" stroke="#e73635"></path>
        <path d="M1091.19 95.54L1141.04 95.54L1141.04 136.3L1091.19 136.3z" fill="rgba(9, 29, 249, 1)"></path>
        <path d="M995.32 163.6L1039.26 163.6L1039.26 207.54L995.32 207.54z" stroke="#037b0b"></path>
        <path d="M1402.01 34.89L1419.44 34.89L1419.44 49.35L1402.01 49.35z" stroke="rgba(9, 249, 116, 1)"></path>
        <path d="M558.77 309.45 a17.02 17.02 0 1 0 34.04 0 a17.02 17.02 0 1 0 -34.04 0z" fill="rgba(9, 249, 116, 1)"></path>
        <path d="M1016.39 235.85L1051.97 235.85L1051.97 287.58L1016.39 287.58z" stroke="#e73635"></path>
        <path d="M114 383.88L120.4 383.88L120.4 424.1L114 424.1z" stroke="rgba(9, 249, 116, 1)"></path>
        <path d="M1024.43 161.18a17.81 17.81 0 1 0-35.59-1.44z" stroke="rgba(9, 29, 249, 1)"></path>
        <path d="M368.73 202.42L411.21 202.42L411.21 214.53L368.73 214.53z" stroke="#d3b714"></path>
        <path d="M43.03 128.11L91.83 128.11L91.83 176.91L43.03 176.91z" fill="rgba(9, 29, 249, 1)"></path>
        <path d="M151.44 399.31 a8.28 8.28 0 1 0 16.56 0 a8.28 8.28 0 1 0 -16.56 0z" fill="rgba(9, 249, 116, 1)"></path>
        <path d="M1314.17 209.18L1332.01 209.18L1332.01 231.29L1314.17 231.29z" stroke="#d3b714"></path>
        <path d="M97.95 517.93L111.15 517.93L111.15 531.13L97.95 531.13z" fill="rgba(9, 29, 249, 1)"></path>
        <path d="M1418.11 39.58 a10.97 10.97 0 1 0 21.94 0 a10.97 10.97 0 1 0 -21.94 0z" fill="rgba(9, 29, 249, 1)"></path>
        <path d="M479.73 394.49L519.62 394.49L519.62 434.38L479.73 434.38z" fill="#e73635"></path>
        <path d="M8.18 48.03L47.06 48.03L47.06 86.91L8.18 86.91z" stroke="#037b0b"></path>
        <path d="M671.54 206.3a34.67 34.67 0 1 0 29.46-62.77z" stroke="#037b0b"></path>
        <path d="M699.71 352.2L727.62 352.2L727.62 380.11L699.71 380.11z" fill="rgba(9, 29, 249, 1)"></path>
        <path d="M150.4 193.09L168.38 193.09L168.38 211.07L150.4 211.07z" fill="rgba(9, 249, 116, 1)"></path>
        <path d="M620.49 439.84L625.18 439.84L625.18 444.53L620.49 444.53z" fill="#037b0b"></path>
        <path d="M292.38 351.06L311.55 351.06L311.55 370.23L292.38 370.23z" stroke="#e73635"></path>
        <path d="M1044.38 332.36 a12.64 12.64 0 1 0 25.28 0 a12.64 12.64 0 1 0 -25.28 0z" stroke="#e73635"></path>
        <path d="M1122.67 447.22a0.54 0.54 0 1 0-0.15-1.07z" fill="rgba(9, 29, 249, 1)"></path>
        <path d="M363.42 385.09L374.92 385.09L374.92 396.59L363.42 396.59z" stroke="#e73635"></path>
        <path d="M772.61 378.31L814 378.31L814 419.7L772.61 419.7z" stroke="#d3b714"></path>
        <path d="M699.36 393.92a46.59 46.59 0 1 0 88-30.63z" stroke="rgba(9, 249, 116, 1)"></path>
        <path d="M513.78 494.95 a41.17 41.17 0 1 0 82.34 0 a41.17 41.17 0 1 0 -82.34 0z" fill="rgba(9, 29, 249, 1)"></path>
        <path d="M479.57 185.8a6.05 6.05 0 1 0-10.53-5.96z" stroke="#e73635"></path>
        <path d="M602.19 499.16 a51.08 51.08 0 1 0 102.16 0 a51.08 51.08 0 1 0 -102.16 0z" fill="#037b0b"></path>
    </g>
    <defs>
        <mask id="SvgjsMask1024">
            <rect width="1440" height="540" fill="#ffffff"></rect>
        </mask>
    </defs>
</svg>
