<svg xmlns="http://www.w3.org/2000/svg" version="1.1" xmlns:xlink="http://www.w3.org/1999/xlink" xmlns:svgjs="http://svgjs.dev/svgjs" width="1440" height="560" preserveAspectRatio="none" viewBox="0 0 1440 560">
    <g mask="url(&quot;#SvgjsMask1057&quot;)" fill="none">
        <path d="M132.96488887254986 226.37839071486678L82.69265683399479 145.92600193160334 2.240268050731345 196.1982339701584 52.51250008928642 276.6506227534219z" fill="rgba(156, 162, 229, 0.4)" class="triangle-float3"></path>
        <path d="M1224.461,127.279C1259.129,129.39,1291.331,107.841,1307.836,77.281C1323.595,48.103,1319.369,12.601,1301.482,-15.323C1284.97,-41.101,1255.055,-51.789,1224.461,-52.876C1191.358,-54.052,1153.475,-50.083,1137.341,-21.154C1121.438,7.361,1140.47,39.937,1156.997,68.095C1173.227,95.747,1192.457,125.33,1224.461,127.279" fill="rgba(156, 162, 229, 0.4)" class="triangle-float2"></path>
        <path d="M404.57985647817975 4.700002050152818L503.16693419939804 103.47517025525859 536.7930674744805-13.793092618783334z" fill="rgba(156, 162, 229, 0.4)" class="triangle-float2"></path>
        <path d="M739.451,703.916C801.027,706.187,863.947,676.442,890.629,620.901C914.963,570.247,883.917,514.959,852.662,468.256C825.868,428.219,787.625,395.29,739.451,395.002C690.824,394.711,649.418,425.512,623.869,466.887C596.729,510.839,583.79,563.988,606.431,610.418C631.891,662.63,681.401,701.775,739.451,703.916" fill="rgba(156, 162, 229, 0.4)" class="triangle-float2"></path>
        <path d="M183.60489458095185 75.64828638530012L328.6922322266872 149.7482307823653 323.72209356729275 7.422081280737956z" fill="rgba(156, 162, 229, 0.4)" class="triangle-float1"></path>
        <path d="M1036.31,559.752C1069.026,562.525,1101.955,544.633,1116.761,515.328C1130.506,488.123,1116.137,457.986,1101.13,431.456C1085.789,404.336,1067.467,372.816,1036.31,373.107C1005.405,373.396,986.455,404.563,973.557,432.649C962.994,455.65,965.251,480.741,976.456,503.437C989.454,529.764,1007.054,557.272,1036.31,559.752" fill="rgba(156, 162, 229, 0.4)" class="triangle-float2"></path>
        <path d="M215.7 253.32 a146.3 146.3 0 1 0 292.6 0 a146.3 146.3 0 1 0 -292.6 0z" fill="rgba(156, 162, 229, 0.4)" class="triangle-float2"></path>
        <path d="M298.64288536939495 383.8764496340423L306.331702721308 493.83166049256715 416.2869135798329 486.1428431406541 408.5980962279198 376.18763228212924z" fill="rgba(156, 162, 229, 0.4)" class="triangle-float3"></path>
        <path d="M650.2970147905611 136.71824905607684L746.5061784372161 126.60625848544485 736.3941878665842 30.39709483878977 640.1850242199291 40.50908540942176z" fill="rgba(156, 162, 229, 0.4)" class="triangle-float1"></path>
        <path d="M1016.19 270.62 a132.91 132.91 0 1 0 265.82 0 a132.91 132.91 0 1 0 -265.82 0z" fill="rgba(156, 162, 229, 0.4)" class="triangle-float3"></path>
    </g>
    <defs>
        <mask id="SvgjsMask1057">
            <rect width="1440" height="560" fill="#ffffff"></rect>
        </mask>
        <style>
            @keyframes float1 {
                    0%{transform: translate(0, 0)}
                    50%{transform: translate(-10px, 0)}
                    100%{transform: translate(0, 0)}
                }

                .triangle-float1 {
                    animation: float1 5s infinite;
                }

                @keyframes float2 {
                    0%{transform: translate(0, 0)}
                    50%{transform: translate(-5px, -5px)}
                    100%{transform: translate(0, 0)}
                }

                .triangle-float2 {
                    animation: float2 4s infinite;
                }

                @keyframes float3 {
                    0%{transform: translate(0, 0)}
                    50%{transform: translate(0, -10px)}
                    100%{transform: translate(0, 0)}
                }

                .triangle-float3 {
                    animation: float3 6s infinite;
                }
        </style>
    </defs>
</svg>
